<svg width="104" height="104" viewBox="0 0 104 104" fill="none" xmlns="http://www.w3.org/2000/svg">
<path d="M52 0L56.7401 3.87287L62.1447 0.999165L66.0382 5.72237L71.8995 3.95826L74.7967 9.35029L80.8896 8.76358L82.6793 14.6172L88.7696 15.2304L89.3828 21.3207L95.2364 23.1103L94.6497 29.2033L100.042 32.1005L98.2776 37.9618L103.001 41.8553L100.127 47.2599L104 52L100.127 56.7401L103.001 62.1447L98.2776 66.0382L100.042 71.8995L94.6497 74.7967L95.2364 80.8896L89.3828 82.6793L88.7696 88.7696L82.6793 89.3828L80.8896 95.2364L74.7967 94.6497L71.8995 100.042L66.0382 98.2776L62.1447 103.001L56.7401 100.127L52 104L47.2599 100.127L41.8553 103.001L37.9618 98.2776L32.1005 100.042L29.2033 94.6497L23.1103 95.2364L21.3207 89.3828L15.2304 88.7696L14.6172 82.6793L8.76358 80.8896L9.35029 74.7967L3.95826 71.8995L5.72237 66.0382L0.999165 62.1447L3.87287 56.7401L0 52L3.87287 47.2599L0.999165 41.8553L5.72237 37.9618L3.95826 32.1005L9.35029 29.2033L8.76358 23.1103L14.6172 21.3207L15.2304 15.2304L21.3207 14.6172L23.1103 8.76358L29.2033 9.35029L32.1005 3.95826L37.9618 5.72237L41.8553 0.999165L47.2599 3.87287L52 0Z" fill="#BC0F0F"/>
</svg>
