<svg width="32" height="32" viewBox="0 0 32 32" fill="none" xmlns="http://www.w3.org/2000/svg">
<path d="M15.9765 11.9064C14.6936 11.9064 13.4606 12.4039 12.5369 13.2942C12.3476 13.4769 12.2387 13.7273 12.234 13.9903C12.2294 14.2534 12.3294 14.5075 12.5121 14.6968C12.6948 14.8861 12.9453 14.995 13.2083 14.9997C13.4713 15.0043 13.7254 14.9043 13.9147 14.7216C14.4777 14.2061 15.2132 13.9202 15.9765 13.9202C16.7398 13.9202 17.4754 14.2061 18.0383 14.7216C18.2276 14.9043 18.4817 15.0043 18.7447 14.9997C19.0078 14.995 19.2582 14.8861 19.4409 14.6968C19.6236 14.5075 19.7236 14.2534 19.719 13.9903C19.7143 13.7273 19.6054 13.4769 19.4161 13.2942C18.4924 12.4039 17.2594 11.9064 15.9765 11.9064ZM15.9765 6.95026C14.7793 6.95105 13.5945 7.1928 12.4927 7.66111C11.3909 8.12942 10.3946 8.81472 9.5632 9.67616C9.47273 9.77184 9.40199 9.8844 9.35502 10.0074C9.30805 10.1304 9.28577 10.2615 9.28945 10.3931C9.29314 10.5247 9.32271 10.6543 9.37648 10.7745C9.43025 10.8947 9.50717 11.0032 9.60285 11.0936C9.79607 11.2763 10.054 11.3748 10.3198 11.3674C10.4514 11.3637 10.581 11.3341 10.7012 11.2804C10.8214 11.2266 10.9298 11.1497 11.0203 11.054C11.6676 10.3824 12.4436 9.84829 13.302 9.48345C14.1603 9.11861 15.0835 8.93057 16.0162 8.93057C16.9488 8.93057 17.872 9.11861 18.7303 9.48345C19.5887 9.84829 20.3647 10.3824 21.012 11.054C21.1038 11.1476 21.2133 11.2222 21.3341 11.2732C21.4549 11.3242 21.5846 11.3508 21.7158 11.3514C21.9095 11.3506 22.0987 11.2931 22.2601 11.186C22.4215 11.0789 22.548 10.9268 22.6239 10.7486C22.6999 10.5704 22.7219 10.3739 22.6873 10.1833C22.6528 9.99267 22.5631 9.81637 22.4295 9.67616C21.5934 8.8099 20.5907 8.12181 19.4817 7.65334C18.3727 7.18487 17.1804 6.94571 15.9765 6.95026Z" fill="#02213C"/>
<path d="M25.6118 5.88982C23.0251 3.39445 19.5711 2 15.9769 2C12.3828 2 8.92881 3.39445 6.3421 5.88982C6.17482 6.07583 6.08405 6.31822 6.08802 6.56835C6.09198 6.81849 6.19037 7.05788 6.36347 7.23849C6.53656 7.41911 6.77154 7.5276 7.02128 7.5422C7.27103 7.5568 7.51705 7.47643 7.71001 7.3172C9.928 5.17328 12.8921 3.97487 15.9769 3.97487C19.0617 3.97487 22.0259 5.17328 24.2439 7.3172C24.4276 7.49432 24.6726 7.59374 24.9278 7.59475C25.0613 7.59424 25.1934 7.56676 25.316 7.51396C25.4387 7.46115 25.5494 7.38412 25.6415 7.28747C25.8222 7.09785 25.9205 6.8444 25.915 6.58251C25.9094 6.32062 25.8004 6.07159 25.6118 5.88982Z" fill="#02213C"/>
<path d="M7 17.25C6.0335 17.25 5.25 18.0335 5.25 19V28C5.25 28.9665 6.0335 29.75 7 29.75H25C25.9665 29.75 26.75 28.9665 26.75 28V19C26.75 18.0335 25.9665 17.25 25 17.25H7Z" stroke="#02213C" stroke-width="1.5"/>
<path d="M10.812 26.048C10.504 26.048 10.232 25.982 9.996 25.85C9.76 25.718 9.576 25.532 9.444 25.292C9.316 25.048 9.252 24.768 9.252 24.452V23.348C9.252 23.032 9.316 22.754 9.444 22.514C9.576 22.27 9.76 22.082 9.996 21.95C10.236 21.818 10.512 21.752 10.824 21.752H11.496C11.796 21.752 12.06 21.812 12.288 21.932C12.516 22.052 12.692 22.222 12.816 22.442C12.944 22.662 13.008 22.916 13.008 23.204H12.192C12.192 22.988 12.128 22.814 12 22.682C11.872 22.55 11.704 22.484 11.496 22.484H10.824C10.6 22.484 10.42 22.568 10.284 22.736C10.148 22.9 10.08 23.116 10.08 23.384V24.416C10.08 24.684 10.146 24.902 10.278 25.07C10.414 25.234 10.592 25.316 10.812 25.316H11.52C11.724 25.316 11.892 25.242 12.024 25.094C12.16 24.946 12.228 24.762 12.228 24.542V24.41H11.064V23.69H13.044V24.542C13.044 24.834 12.98 25.094 12.852 25.322C12.724 25.55 12.544 25.728 12.312 25.856C12.08 25.984 11.816 26.048 11.52 26.048H10.812ZM15.2035 26.048C14.7635 26.048 14.4195 25.926 14.1715 25.682C13.9235 25.434 13.7995 25.09 13.7995 24.65H14.6155C14.6155 24.858 14.6675 25.022 14.7715 25.142C14.8795 25.258 15.0275 25.316 15.2155 25.316H15.8815C16.0575 25.316 16.1995 25.28 16.3075 25.208C16.4195 25.132 16.4755 25.032 16.4755 24.908V24.704C16.4755 24.508 16.3315 24.386 16.0435 24.338L14.9395 24.152C14.5795 24.092 14.3055 23.978 14.1175 23.81C13.9335 23.638 13.8415 23.42 13.8415 23.156V22.82C13.8415 22.608 13.8975 22.422 14.0095 22.262C14.1255 22.098 14.2875 21.972 14.4955 21.884C14.7075 21.796 14.9515 21.752 15.2275 21.752H15.9055C16.1655 21.752 16.3955 21.806 16.5955 21.914C16.7955 22.022 16.9495 22.174 17.0575 22.37C17.1695 22.562 17.2255 22.786 17.2255 23.042H16.4095C16.4095 22.874 16.3635 22.74 16.2715 22.64C16.1795 22.536 16.0575 22.484 15.9055 22.484H15.2275C15.0595 22.484 14.9235 22.52 14.8195 22.592C14.7195 22.664 14.6695 22.76 14.6695 22.88V23.042C14.6695 23.242 14.8075 23.366 15.0835 23.414L16.1815 23.606C16.5455 23.67 16.8235 23.784 17.0155 23.948C17.2075 24.108 17.3035 24.316 17.3035 24.572V24.968C17.3035 25.18 17.2435 25.368 17.1235 25.532C17.0075 25.696 16.8435 25.824 16.6315 25.916C16.4195 26.004 16.1735 26.048 15.8935 26.048H15.2035ZM18.181 21.8H18.919L20.293 24.296L21.637 21.8H22.375V26H21.565V23.342L20.683 24.938C20.623 25.046 20.561 25.124 20.497 25.172C20.437 25.216 20.367 25.238 20.287 25.238H20.059L18.991 23.342V26H18.181V21.8Z" fill="#02213C"/>
<path d="M9.996 25.85L9.93742 25.9547L9.996 25.85ZM9.444 25.292L9.33771 25.3478L9.33885 25.3498L9.444 25.292ZM9.444 22.514L9.33845 22.4569L9.33812 22.4575L9.444 22.514ZM9.996 21.95L9.93817 21.8449L9.93742 21.8453L9.996 21.95ZM12.288 21.932L12.3439 21.8258L12.3439 21.8258L12.288 21.932ZM12.816 22.442L12.7115 22.5009L12.7123 22.5023L12.816 22.442ZM13.008 23.204V23.324C13.0743 23.324 13.128 23.2703 13.128 23.204H13.008ZM12.192 23.204H12.072C12.072 23.2703 12.1257 23.324 12.192 23.324V23.204ZM12 22.682L11.9139 22.7655L12 22.682ZM10.284 22.736L10.3764 22.8126L10.3773 22.8115L10.284 22.736ZM10.278 25.07L10.1836 25.1442L10.1856 25.1466L10.278 25.07ZM12.024 25.094L11.9356 25.0128L11.9344 25.0141L12.024 25.094ZM12.228 24.41H12.348C12.348 24.3437 12.2943 24.29 12.228 24.29V24.41ZM11.064 24.41H10.944C10.944 24.4763 10.9977 24.53 11.064 24.53V24.41ZM11.064 23.69V23.57C10.9977 23.57 10.944 23.6237 10.944 23.69H11.064ZM13.044 23.69H13.164C13.164 23.6237 13.1103 23.57 13.044 23.57V23.69ZM12.852 25.322L12.7474 25.2633L12.852 25.322ZM12.312 25.856L12.37 25.9611L12.312 25.856ZM10.812 25.928C10.5216 25.928 10.2703 25.8659 10.0546 25.7453L9.93742 25.9547C10.1937 26.0981 10.4864 26.168 10.812 26.168V25.928ZM10.0546 25.7453C9.83845 25.6244 9.67047 25.4548 9.54915 25.2342L9.33885 25.3498C9.48153 25.6092 9.68155 25.8116 9.93742 25.9547L10.0546 25.7453ZM9.55027 25.2363C9.43253 25.0118 9.372 24.7515 9.372 24.452H9.132C9.132 24.7845 9.19947 25.0842 9.33773 25.3477L9.55027 25.2363ZM9.372 24.452V23.348H9.132V24.452H9.372ZM9.372 23.348C9.372 23.0485 9.43255 22.7905 9.54988 22.5705L9.33812 22.4575C9.19945 22.7175 9.132 23.0155 9.132 23.348H9.372ZM9.54955 22.5711C9.67102 22.3466 9.83897 22.1753 10.0546 22.0547L9.93742 21.8453C9.68103 21.9887 9.48098 22.1934 9.33845 22.4569L9.54955 22.5711ZM10.0538 22.0551C10.2738 21.9342 10.5294 21.872 10.824 21.872V21.632C10.4946 21.632 10.1982 21.7018 9.93817 21.8449L10.0538 22.0551ZM10.824 21.872H11.496V21.632H10.824V21.872ZM11.496 21.872C11.7797 21.872 12.024 21.9286 12.2321 22.0382L12.3439 21.8258C12.096 21.6954 11.8123 21.632 11.496 21.632V21.872ZM12.2321 22.0382C12.4401 22.1477 12.599 22.3015 12.7115 22.5009L12.9205 22.3831C12.785 22.1425 12.5919 21.9563 12.3439 21.8258L12.2321 22.0382ZM12.7123 22.5023C12.8283 22.7017 12.888 22.9344 12.888 23.204H13.128C13.128 22.8976 13.0597 22.6223 12.9197 22.3817L12.7123 22.5023ZM13.008 23.084H12.192V23.324H13.008V23.084ZM12.312 23.204C12.312 22.9627 12.2396 22.7567 12.0861 22.5985L11.9139 22.7655C12.0164 22.8713 12.072 23.0133 12.072 23.204H12.312ZM12.0861 22.5985C11.9325 22.44 11.7318 22.364 11.496 22.364V22.604C11.6762 22.604 11.8115 22.66 11.9139 22.7655L12.0861 22.5985ZM11.496 22.364H10.824V22.604H11.496V22.364ZM10.824 22.364C10.5653 22.364 10.3505 22.4632 10.1907 22.6605L10.3773 22.8115C10.4895 22.6728 10.6347 22.604 10.824 22.604V22.364ZM10.1916 22.6594C10.0336 22.85 9.96 23.0954 9.96 23.384H10.2C10.2 23.1366 10.2624 22.95 10.3764 22.8126L10.1916 22.6594ZM9.96 23.384V24.416H10.2V23.384H9.96ZM9.96 24.416C9.96 24.7039 10.0312 24.9501 10.1836 25.1441L10.3724 24.9959C10.2608 24.8539 10.2 24.6641 10.2 24.416H9.96ZM10.1856 25.1466C10.3453 25.3391 10.5576 25.436 10.812 25.436V25.196C10.6264 25.196 10.4827 25.1289 10.3704 24.9934L10.1856 25.1466ZM10.812 25.436H11.52V25.196H10.812V25.436ZM11.52 25.436C11.7571 25.436 11.9581 25.3482 12.1136 25.1739L11.9344 25.0141C11.8259 25.1358 11.6909 25.196 11.52 25.196V25.436ZM12.1124 25.1752C12.2707 25.0029 12.348 24.789 12.348 24.542H12.108C12.108 24.735 12.0493 24.8891 11.9356 25.0128L12.1124 25.1752ZM12.348 24.542V24.41H12.108V24.542H12.348ZM12.228 24.29H11.064V24.53H12.228V24.29ZM11.184 24.41V23.69H10.944V24.41H11.184ZM11.064 23.81H13.044V23.57H11.064V23.81ZM12.924 23.69V24.542H13.164V23.69H12.924ZM12.924 24.542C12.924 24.8159 12.8642 25.0552 12.7474 25.2633L12.9566 25.3807C13.0958 25.1328 13.164 24.8521 13.164 24.542H12.924ZM12.7474 25.2633C12.6305 25.4715 12.4667 25.6336 12.254 25.7509L12.37 25.9611C12.6213 25.8224 12.8175 25.6285 12.9566 25.3807L12.7474 25.2633ZM12.254 25.7509C12.0418 25.868 11.7981 25.928 11.52 25.928V26.168C11.8339 26.168 12.1182 26.1 12.37 25.9611L12.254 25.7509ZM11.52 25.928H10.812V26.168H11.52V25.928ZM14.1715 25.682L14.0866 25.7669L14.0873 25.7675L14.1715 25.682ZM13.7995 24.65V24.53C13.7332 24.53 13.6795 24.5837 13.6795 24.65H13.7995ZM14.6155 24.65H14.7355C14.7355 24.5837 14.6818 24.53 14.6155 24.53V24.65ZM14.7715 25.142L14.6807 25.2206L14.6837 25.2238L14.7715 25.142ZM16.3075 25.208L16.3741 25.3078L16.3749 25.3073L16.3075 25.208ZM16.0435 24.338L16.0235 24.4563L16.0238 24.4564L16.0435 24.338ZM14.9395 24.152L14.9594 24.0337L14.9592 24.0336L14.9395 24.152ZM14.1175 23.81L14.0355 23.8977L14.0375 23.8995L14.1175 23.81ZM14.0095 22.262L13.9115 22.1927L13.9112 22.1932L14.0095 22.262ZM14.4955 21.884L14.4495 21.7732L14.4487 21.7735L14.4955 21.884ZM16.5955 21.914L16.6525 21.8084V21.8084L16.5955 21.914ZM17.0575 22.37L16.9524 22.4279L16.9538 22.4305L17.0575 22.37ZM17.2255 23.042V23.162C17.2918 23.162 17.3455 23.1083 17.3455 23.042H17.2255ZM16.4095 23.042H16.2895C16.2895 23.1083 16.3432 23.162 16.4095 23.162V23.042ZM16.2715 22.64L16.1816 22.7195L16.1832 22.7212L16.2715 22.64ZM14.8195 22.592L14.7512 22.4933L14.7494 22.4946L14.8195 22.592ZM15.0835 23.414L15.1042 23.2958L15.104 23.2958L15.0835 23.414ZM16.1815 23.606L16.2023 23.4878L16.2022 23.4878L16.1815 23.606ZM17.0155 23.948L16.9375 24.0393L16.9387 24.0402L17.0155 23.948ZM17.1235 25.532L17.0266 25.4611L17.0255 25.4627L17.1235 25.532ZM16.6315 25.916L16.6775 26.0268L16.6793 26.0261L16.6315 25.916ZM15.2035 25.928C14.7862 25.928 14.4757 25.8129 14.2556 25.5965L14.0873 25.7675C14.3633 26.0391 14.7407 26.168 15.2035 26.168V25.928ZM14.2563 25.5971C14.0362 25.377 13.9195 25.0667 13.9195 24.65H13.6795C13.6795 25.1133 13.8107 25.491 14.0866 25.7669L14.2563 25.5971ZM13.7995 24.77H14.6155V24.53H13.7995V24.77ZM14.4955 24.65C14.4955 24.8778 14.5527 25.0728 14.6808 25.2206L14.8622 25.0634C14.7823 24.9712 14.7355 24.8382 14.7355 24.65H14.4955ZM14.6837 25.2238C14.8186 25.3687 15.0009 25.436 15.2155 25.436V25.196C15.0541 25.196 14.9404 25.1473 14.8593 25.0602L14.6837 25.2238ZM15.2155 25.436H15.8815V25.196H15.2155V25.436ZM15.8815 25.436C16.073 25.436 16.2405 25.3969 16.374 25.3078L16.2409 25.1082C16.1585 25.1631 16.042 25.196 15.8815 25.196V25.436ZM16.3749 25.3073C16.5162 25.2114 16.5955 25.0759 16.5955 24.908H16.3555C16.3555 24.9881 16.3227 25.0526 16.2401 25.1087L16.3749 25.3073ZM16.5955 24.908V24.704H16.3555V24.908H16.5955ZM16.5955 24.704C16.5955 24.5723 16.5451 24.4587 16.4451 24.3739C16.3499 24.2933 16.2178 24.2454 16.0632 24.2196L16.0238 24.4564C16.1571 24.4786 16.2411 24.5157 16.2899 24.5571C16.3338 24.5943 16.3555 24.6397 16.3555 24.704H16.5955ZM16.0634 24.2197L14.9594 24.0337L14.9195 24.2703L16.0235 24.4563L16.0634 24.2197ZM14.9592 24.0336C14.6121 23.9758 14.3625 23.868 14.1974 23.7205L14.0375 23.8995C14.2484 24.088 14.5468 24.2082 14.9198 24.2704L14.9592 24.0336ZM14.1994 23.7223C14.041 23.5742 13.9615 23.3886 13.9615 23.156H13.7215C13.7215 23.4514 13.826 23.7018 14.0355 23.8977L14.1994 23.7223ZM13.9615 23.156V22.82H13.7215V23.156H13.9615ZM13.9615 22.82C13.9615 22.6304 14.0111 22.4689 14.1078 22.3308L13.9112 22.1932C13.7838 22.3751 13.7215 22.5856 13.7215 22.82H13.9615ZM14.1075 22.3313C14.209 22.1877 14.3522 22.0749 14.5422 21.9945L14.4487 21.7735C14.2228 21.8691 14.042 22.0083 13.9115 22.1927L14.1075 22.3313ZM14.5415 21.9948C14.7363 21.914 14.9641 21.872 15.2275 21.872V21.632C14.9388 21.632 14.6787 21.678 14.4495 21.7732L14.5415 21.9948ZM15.2275 21.872H15.9055V21.632H15.2275V21.872ZM15.9055 21.872C16.1485 21.872 16.3584 21.9223 16.5385 22.0196L16.6525 21.8084C16.4326 21.6897 16.1825 21.632 15.9055 21.632V21.872ZM16.5385 22.0196C16.7185 22.1168 16.8557 22.2524 16.9524 22.4279L17.1626 22.3121C17.0433 22.0956 16.8724 21.9272 16.6525 21.8084L16.5385 22.0196ZM16.9538 22.4305C17.0536 22.6015 17.1055 22.804 17.1055 23.042H17.3455C17.3455 22.768 17.2854 22.5225 17.1611 22.3095L16.9538 22.4305ZM17.2255 22.922H16.4095V23.162H17.2255V22.922ZM16.5295 23.042C16.5295 22.8513 16.4767 22.6858 16.3598 22.5588L16.1832 22.7212C16.2503 22.7942 16.2895 22.8967 16.2895 23.042H16.5295ZM16.3614 22.5605C16.2443 22.4281 16.0882 22.364 15.9055 22.364V22.604C16.0268 22.604 16.1147 22.6439 16.1816 22.7195L16.3614 22.5605ZM15.9055 22.364H15.2275V22.604H15.9055V22.364ZM15.2275 22.364C15.043 22.364 14.8809 22.4035 14.7512 22.4933L14.8878 22.6907C14.9661 22.6365 15.076 22.604 15.2275 22.604V22.364ZM14.7494 22.4946C14.619 22.5884 14.5495 22.7202 14.5495 22.88H14.7895C14.7895 22.7998 14.8199 22.7396 14.8896 22.6894L14.7494 22.4946ZM14.5495 22.88V23.042H14.7895V22.88H14.5495ZM14.5495 23.042C14.5495 23.1731 14.5963 23.2876 14.6928 23.3743C14.785 23.4572 14.9133 23.5062 15.0629 23.5322L15.104 23.2958C14.9777 23.2738 14.8989 23.2368 14.8532 23.1957C14.8117 23.1584 14.7895 23.1109 14.7895 23.042H14.5495ZM15.0628 23.5322L16.1608 23.7242L16.2022 23.4878L15.1042 23.2958L15.0628 23.5322ZM16.1607 23.7242C16.5128 23.7861 16.7677 23.8942 16.9375 24.0392L17.0934 23.8568C16.8793 23.6738 16.5782 23.5539 16.2023 23.4878L16.1607 23.7242ZM16.9387 24.0402C17.1025 24.1768 17.1835 24.3506 17.1835 24.572H17.4235C17.4235 24.2814 17.3124 24.0392 17.0923 23.8558L16.9387 24.0402ZM17.1835 24.572V24.968H17.4235V24.572H17.1835ZM17.1835 24.968C17.1835 25.1557 17.1309 25.3186 17.0266 25.4611L17.2203 25.6029C17.3561 25.4174 17.4235 25.2043 17.4235 24.968H17.1835ZM17.0255 25.4627C16.924 25.6062 16.7787 25.7213 16.5837 25.8059L16.6793 26.0261C16.9083 25.9267 17.091 25.7858 17.2215 25.6013L17.0255 25.4627ZM16.5855 25.8052C16.3909 25.8859 16.1611 25.928 15.8935 25.928V26.168C16.1859 26.168 16.4481 26.1221 16.6775 26.0268L16.5855 25.8052ZM15.8935 25.928H15.2035V26.168H15.8935V25.928ZM18.181 21.8V21.68C18.1147 21.68 18.061 21.7337 18.061 21.8H18.181ZM18.919 21.8L19.0241 21.7421C19.003 21.7038 18.9627 21.68 18.919 21.68V21.8ZM20.293 24.296L20.1879 24.3539C20.2091 24.3924 20.2496 24.4162 20.2935 24.416C20.3375 24.4158 20.3778 24.3916 20.3986 24.3529L20.293 24.296ZM21.637 21.8V21.68C21.5928 21.68 21.5523 21.7042 21.5313 21.7431L21.637 21.8ZM22.375 21.8H22.495C22.495 21.7337 22.4413 21.68 22.375 21.68V21.8ZM22.375 26V26.12C22.4413 26.12 22.495 26.0663 22.495 26H22.375ZM21.565 26H21.445C21.445 26.0663 21.4987 26.12 21.565 26.12V26ZM21.565 23.342H21.685C21.685 23.2873 21.648 23.2395 21.595 23.2258C21.542 23.2121 21.4864 23.2361 21.46 23.284L21.565 23.342ZM20.683 24.938L20.7879 24.9963L20.788 24.996L20.683 24.938ZM20.497 25.172L20.568 25.2688L20.569 25.268L20.497 25.172ZM20.059 25.238L19.9544 25.2969C19.9757 25.3346 20.0157 25.358 20.059 25.358V25.238ZM18.991 23.342L19.0955 23.2831C19.0688 23.2356 19.0133 23.2121 18.9605 23.2259C18.9078 23.2398 18.871 23.2875 18.871 23.342H18.991ZM18.991 26V26.12C19.0573 26.12 19.111 26.0663 19.111 26H18.991ZM18.181 26H18.061C18.061 26.0663 18.1147 26.12 18.181 26.12V26ZM18.181 21.92H18.919V21.68H18.181V21.92ZM18.8139 21.8579L20.1879 24.3539L20.3981 24.2381L19.0241 21.7421L18.8139 21.8579ZM20.3986 24.3529L21.7426 21.8569L21.5313 21.7431L20.1873 24.2391L20.3986 24.3529ZM21.637 21.92H22.375V21.68H21.637V21.92ZM22.255 21.8V26H22.495V21.8H22.255ZM22.375 25.88H21.565V26.12H22.375V25.88ZM21.685 26V23.342H21.445V26H21.685ZM21.46 23.284L20.578 24.88L20.788 24.996L21.67 23.4L21.46 23.284ZM20.5781 24.8797C20.5223 24.9802 20.4702 25.0421 20.425 25.076L20.569 25.268C20.6518 25.2059 20.7237 25.1118 20.7879 24.9963L20.5781 24.8797ZM20.426 25.0752C20.3882 25.103 20.3435 25.118 20.287 25.118V25.358C20.3905 25.358 20.4858 25.329 20.5679 25.2688L20.426 25.0752ZM20.287 25.118H20.059V25.358H20.287V25.118ZM20.1635 25.1791L19.0955 23.2831L18.8864 23.4009L19.9544 25.2969L20.1635 25.1791ZM18.871 23.342V26H19.111V23.342H18.871ZM18.991 25.88H18.181V26.12H18.991V25.88ZM18.301 26V21.8H18.061V26H18.301Z" fill="#02213C"/>
</svg>
