<svg width="32" height="32" viewBox="0 0 32 32" fill="none" xmlns="http://www.w3.org/2000/svg">
<path d="M1.75 10.75H21.25V21.25H1.75V10.75Z" stroke="black" stroke-width="1.5"/>
<mask id="path-3-inside-1_4_276037" fill="white">
<path d="M1 7C1 6.44772 1.44772 6 2 6H6C6.55228 6 7 6.44772 7 7V27H1V7Z"/>
</mask>
<path d="M1 7C1 6.44772 1.44772 6 2 6H6C6.55228 6 7 6.44772 7 7V27H1V7Z" fill="white" stroke="black" stroke-width="3" mask="url(#path-3-inside-1_4_276037)"/>
<mask id="path-4-inside-2_4_276037" fill="white">
<rect x="25" y="6" width="6" height="21" rx="1"/>
</mask>
<rect x="25" y="6" width="6" height="21" rx="1" fill="white" stroke="black" stroke-width="3" mask="url(#path-4-inside-2_4_276037)"/>
<rect x="16" y="10" width="1" height="12" fill="black"/>
<rect x="11" y="10" width="1" height="12" fill="black"/>
<rect x="6" y="10" width="1" height="12" fill="black"/>
<rect y="25" width="32" height="2" rx="1" fill="black"/>
</svg>
