<svg width="32" height="32" viewBox="0 0 32 32" fill="none" xmlns="http://www.w3.org/2000/svg">
<path d="M10.8889 2H3.77778C2.79594 2 2 2.79594 2 3.77778V10.8889C2 11.8707 2.79594 12.6667 3.77778 12.6667H10.8889C11.8707 12.6667 12.6667 11.8707 12.6667 10.8889V3.77778C12.6667 2.79594 11.8707 2 10.8889 2Z" stroke="black" stroke-width="2" stroke-linecap="round" stroke-linejoin="round"/>
<path d="M28.2229 19.3333H21.1118C20.1299 19.3333 19.334 20.1292 19.334 21.111V28.2221C19.334 29.204 20.1299 29.9999 21.1118 29.9999H28.2229C29.2047 29.9999 30.0007 29.204 30.0007 28.2221V21.111C30.0007 20.1292 29.2047 19.3333 28.2229 19.3333Z" stroke="black" stroke-width="2" stroke-linecap="round" stroke-linejoin="round"/>
<path d="M2 16.7778V21.1112C2 22.0542 2.3746 22.9585 3.0414 23.6253C3.70819 24.2921 4.61256 24.6667 5.55556 24.6667H15.2222M15.2222 24.6667L10.8889 20.3334M15.2222 24.6667L10.8889 29.0001" stroke="black" stroke-linecap="round" stroke-linejoin="round"/>
<path d="M30.2227 15.2222L30.2227 10.8888C30.2227 9.94584 29.8481 9.04147 29.1813 8.37468C28.5145 7.70788 27.6101 7.33328 26.6671 7.33328L17.0004 7.33328M17.0004 7.33328L21.3338 11.6666M17.0004 7.33328L21.3338 2.99995" stroke="black" stroke-linecap="round" stroke-linejoin="round"/>
</svg>
