<svg width="32" height="32" viewBox="0 0 32 32" fill="none" xmlns="http://www.w3.org/2000/svg">
<path d="M15.9765 11.9064C14.6936 11.9064 13.4606 12.4039 12.5369 13.2942C12.3476 13.4769 12.2387 13.7273 12.234 13.9903C12.2294 14.2534 12.3294 14.5075 12.5121 14.6968C12.6948 14.8861 12.9453 14.995 13.2083 14.9997C13.4713 15.0043 13.7254 14.9043 13.9147 14.7216C14.4777 14.2061 15.2132 13.9202 15.9765 13.9202C16.7398 13.9202 17.4754 14.2061 18.0383 14.7216C18.2276 14.9043 18.4817 15.0043 18.7447 14.9997C19.0078 14.995 19.2582 14.8861 19.4409 14.6968C19.6236 14.5075 19.7236 14.2534 19.719 13.9903C19.7143 13.7273 19.6054 13.4769 19.4161 13.2942C18.4924 12.4039 17.2594 11.9064 15.9765 11.9064ZM15.9765 6.95026C14.7793 6.95105 13.5945 7.1928 12.4927 7.66111C11.3909 8.12942 10.3946 8.81472 9.5632 9.67616C9.47273 9.77184 9.40199 9.8844 9.35502 10.0074C9.30805 10.1304 9.28577 10.2615 9.28945 10.3931C9.29314 10.5247 9.32271 10.6543 9.37648 10.7745C9.43025 10.8947 9.50717 11.0032 9.60285 11.0936C9.79607 11.2763 10.054 11.3748 10.3198 11.3674C10.4514 11.3637 10.581 11.3341 10.7012 11.2804C10.8214 11.2266 10.9298 11.1497 11.0203 11.054C11.6676 10.3824 12.4436 9.84829 13.302 9.48345C14.1603 9.11861 15.0835 8.93057 16.0162 8.93057C16.9488 8.93057 17.872 9.11861 18.7303 9.48345C19.5887 9.84829 20.3647 10.3824 21.012 11.054C21.1038 11.1476 21.2133 11.2222 21.3341 11.2732C21.4549 11.3242 21.5846 11.3508 21.7158 11.3514C21.9095 11.3506 22.0987 11.2931 22.2601 11.186C22.4215 11.0789 22.548 10.9268 22.6239 10.7486C22.6999 10.5704 22.7219 10.3739 22.6873 10.1833C22.6528 9.99267 22.5631 9.81637 22.4295 9.67616C21.5934 8.8099 20.5907 8.12181 19.4817 7.65334C18.3727 7.18487 17.1804 6.94571 15.9765 6.95026Z" fill="black"/>
<path d="M25.6118 5.88982C23.0251 3.39445 19.5711 2 15.9769 2C12.3828 2 8.92881 3.39445 6.3421 5.88982C6.17482 6.07583 6.08405 6.31822 6.08802 6.56835C6.09198 6.81849 6.19037 7.05788 6.36347 7.23849C6.53656 7.41911 6.77154 7.5276 7.02128 7.5422C7.27103 7.5568 7.51705 7.47643 7.71001 7.3172C9.928 5.17328 12.8921 3.97487 15.9769 3.97487C19.0617 3.97487 22.0259 5.17328 24.2439 7.3172C24.4276 7.49432 24.6726 7.59374 24.9278 7.59475C25.0613 7.59424 25.1934 7.56676 25.316 7.51396C25.4387 7.46115 25.5494 7.38412 25.6415 7.28747C25.8222 7.09785 25.9205 6.8444 25.915 6.58251C25.9094 6.32062 25.8004 6.07159 25.6118 5.88982Z" fill="black"/>
<path d="M16 16.75C18.8995 16.75 21.25 19.1005 21.25 22L21.25 25C21.25 27.8995 18.8995 30.25 16 30.25C13.1005 30.25 10.75 27.8995 10.75 25L10.75 22C10.75 19.1005 13.1005 16.75 16 16.75Z" fill="white" stroke="black" stroke-width="1.5"/>
<circle cx="16" cy="20.8894" r="1.2" transform="rotate(45 16 20.8894)" fill="black"/>
<circle cx="13.4541" cy="23.4348" r="1.2" transform="rotate(45 13.4541 23.4348)" fill="black"/>
<circle cx="18.5459" cy="23.4348" r="1.2" transform="rotate(45 18.5459 23.4348)" fill="black"/>
<circle cx="16" cy="25.9807" r="1.2" transform="rotate(45 16 25.9807)" fill="black"/>
</svg>
