<svg width="32" height="32" viewBox="0 0 32 32" fill="none" xmlns="http://www.w3.org/2000/svg">
<path d="M28.1147 6.42658L26.4467 6.56886C26.2019 6.24949 25.9231 5.95758 25.6153 5.69824L25.8082 4.04404C25.8153 3.98166 25.8022 3.91867 25.7706 3.86441C25.7391 3.81014 25.6908 3.76751 25.6331 3.74282L24.1477 3.09354C24.0902 3.06817 24.0261 3.06198 23.9649 3.0759C23.9036 3.08983 23.8485 3.12312 23.8076 3.17083L22.7341 4.43125C22.3276 4.37564 21.9162 4.36513 21.5073 4.39993L20.4819 3.10183C20.4417 3.05494 20.3876 3.02203 20.3274 3.00782C20.2673 2.99362 20.2042 2.99885 20.1472 3.02277L18.6411 3.61546C18.5833 3.6385 18.5344 3.67936 18.5015 3.73208C18.4685 3.7848 18.4533 3.84663 18.4579 3.90858L18.5904 5.55294C18.2642 5.80674 17.9673 6.09602 17.7051 6.41543L16.0845 6.22034C16.0221 6.21327 15.9591 6.2265 15.9048 6.25806C15.8504 6.28963 15.8077 6.33785 15.783 6.39556L15.1154 7.87668C15.09 7.9341 15.0837 7.99817 15.0976 8.05938C15.1115 8.1206 15.1448 8.17569 15.1925 8.21648L16.4399 9.26787C16.3843 9.67564 16.3741 10.0883 16.4095 10.4982L15.1098 11.5238C15.0612 11.5626 15.0263 11.6159 15.0101 11.6759C14.9939 11.7359 14.9973 11.7995 15.0198 11.8574L15.6119 13.362C15.6349 13.4197 15.6757 13.4686 15.7285 13.5014C15.7812 13.5343 15.8431 13.5495 15.9051 13.5448L17.5641 13.406C17.8163 13.7236 18.1026 14.0126 18.4178 14.2679L18.2371 15.9532C18.23 16.0156 18.2432 16.0786 18.2748 16.1329C18.3063 16.1871 18.3545 16.2298 18.4123 16.2545L19.8959 16.8993C19.9534 16.9247 20.0175 16.9309 20.0787 16.9169C20.14 16.903 20.1952 16.8697 20.236 16.822L21.3238 15.5457C21.7186 15.5931 22.1174 15.5981 22.5134 15.5608L23.5493 16.8856C23.5881 16.9341 23.6414 16.969 23.7015 16.9851C23.7615 17.0013 23.8251 16.9978 23.8831 16.9753L25.3892 16.3826C25.4469 16.3596 25.4958 16.3187 25.5288 16.266C25.5617 16.2133 25.577 16.1515 25.5723 16.0895L25.4258 14.4095C25.7377 14.1677 26.0231 13.8934 26.2771 13.5913L27.9536 13.7849C28.0161 13.792 28.0791 13.7787 28.1334 13.7472C28.1878 13.7156 28.2305 13.6674 28.2552 13.6097L28.9015 12.1267C28.9269 12.0693 28.9332 12.0052 28.9193 11.944C28.9054 11.8828 28.8721 11.8277 28.8244 11.7869L27.5416 10.698C27.5913 10.3045 27.5987 9.90696 27.5638 9.512L28.8902 8.47591C28.9388 8.43709 28.9737 8.38381 28.9899 8.32381C29.0061 8.26381 29.0027 8.20023 28.9802 8.14232L28.3829 6.62434C28.3637 6.56796 28.3278 6.51878 28.2798 6.48343C28.2319 6.44808 28.1742 6.42825 28.1147 6.42658ZM22.9853 12.4448C22.5006 12.6355 21.9702 12.6784 21.4614 12.568C20.9525 12.4575 20.4879 12.1988 20.1263 11.8244C19.7648 11.45 19.5225 10.9768 19.4302 10.4647C19.3378 9.95253 19.3996 9.42443 19.6076 8.94714C19.8156 8.46985 20.1605 8.06483 20.5987 7.78327C21.0369 7.50172 21.5488 7.35629 22.0695 7.36537C22.5903 7.37445 23.0965 7.53764 23.5242 7.83429C23.952 8.13095 24.282 8.54774 24.4726 9.03198C24.7281 9.68132 24.715 10.4057 24.436 11.0457C24.1571 11.6857 23.6353 12.189 22.9853 12.4448Z" fill="black"/>
<path d="M17.8624 11.6923H18.9316V12.7615H17.8624V11.6923Z" fill="black"/>
<path d="M20.765 19.0561L18.6413 18.4227C18.4944 17.9106 18.2925 17.4158 18.039 16.9471L19.0787 15.0027C19.1177 14.9294 19.132 14.8454 19.1194 14.7632C19.1069 14.6811 19.0681 14.6052 19.009 14.5467L17.4938 13.0268C17.4353 12.9676 17.3594 12.9289 17.2771 12.9164C17.1949 12.9038 17.1108 12.9181 17.0374 12.9571L15.1038 13.9894C14.63 13.7238 14.1282 13.5114 13.6077 13.3561L12.9737 11.2598C12.9469 11.1825 12.8962 11.1157 12.829 11.0691C12.7618 11.0224 12.6815 10.9983 12.5997 11.0001H10.4569C10.3746 11.0005 10.2946 11.0271 10.2284 11.0761C10.1623 11.1251 10.1135 11.1938 10.0892 11.2724L9.45529 13.3624C8.93038 13.5169 8.42433 13.7294 7.94648 13.9957L6.04462 12.9698C5.97116 12.9308 5.88707 12.9165 5.80485 12.9291C5.72262 12.9416 5.64664 12.9803 5.58817 13.0394L4.04767 14.5404C3.9885 14.5988 3.94976 14.6747 3.9372 14.7569C3.92464 14.839 3.93892 14.923 3.97793 14.9964L5.00494 16.8964C4.73871 17.3718 4.52609 17.8752 4.37098 18.3974L2.2726 19.0307C2.19394 19.055 2.12509 19.1037 2.07606 19.1698C2.02703 19.2358 2.00038 19.3158 2 19.3981V21.5387C2.00038 21.621 2.02703 21.7009 2.07606 21.767C2.12509 21.8331 2.19394 21.8818 2.2726 21.906L4.38366 22.5394C4.54047 23.0529 4.75305 23.5477 5.01762 24.015L3.97793 26.0037C3.93892 26.0771 3.92464 26.1611 3.9372 26.2432C3.94976 26.3254 3.9885 26.4013 4.04767 26.4597L5.56281 27.9733C5.62128 28.0325 5.69726 28.0712 5.77949 28.0837C5.86171 28.0963 5.9458 28.082 6.01926 28.043L7.97818 26.998C8.44157 27.2478 8.93038 27.4474 9.43627 27.5933L10.0702 29.7277C10.0945 29.8062 10.1433 29.875 10.2094 29.924C10.2755 29.973 10.3556 29.9996 10.4379 30H12.5807C12.663 29.9996 12.7431 29.973 12.8092 29.924C12.8753 29.875 12.9241 29.8062 12.9484 29.7277L13.5823 27.587C14.0839 27.4403 14.5684 27.2407 15.0277 26.9917L16.9993 28.043C17.0728 28.082 17.1569 28.0963 17.2391 28.0837C17.3213 28.0712 17.3973 28.0325 17.4558 27.9733L18.9709 26.4597C19.0301 26.4013 19.0688 26.3254 19.0814 26.2432C19.094 26.1611 19.0797 26.0771 19.0407 26.0037L17.9883 24.0404C18.2402 23.5797 18.4421 23.0935 18.5905 22.59L20.727 21.9567C20.8056 21.9324 20.8745 21.8837 20.9235 21.8177C20.9725 21.7516 20.9992 21.6716 20.9996 21.5894V19.4297C21.0033 19.351 20.9828 19.273 20.9409 19.2062C20.899 19.1394 20.8376 19.087 20.765 19.0561V19.0561ZM11.5283 23.9834C10.8387 23.9834 10.1646 23.7791 9.59118 23.3963C9.01779 23.0136 8.57089 22.4695 8.30698 21.8331C8.04308 21.1966 7.97403 20.4962 8.10857 19.8205C8.2431 19.1448 8.57518 18.5241 9.06281 18.037C9.55044 17.5498 10.1717 17.2181 10.8481 17.0837C11.5244 16.9493 12.2255 17.0182 12.8626 17.2819C13.4997 17.5455 14.0443 17.992 14.4274 18.5648C14.8106 19.1377 15.0151 19.8111 15.0151 20.5C15.0151 21.4239 14.6477 22.3099 13.9938 22.9631C13.3399 23.6164 12.4531 23.9834 11.5283 23.9834V23.9834Z" stroke="black" stroke-width="1.5" stroke-linejoin="round"/>
</svg>
