<svg width="32" height="32" viewBox="0 0 32 32" fill="none" xmlns="http://www.w3.org/2000/svg">
<path d="M11 10.75H26.3333C26.4343 10.75 26.5253 10.8107 26.5641 10.9038L30.7308 20.9038C30.7994 21.0685 30.6784 21.25 30.5 21.25H11C10.8619 21.25 10.75 21.1381 10.75 21V11C10.75 10.8619 10.8619 10.75 11 10.75Z" stroke="black" stroke-width="1.5"/>
<rect x="25" y="10" width="1" height="12" fill="black"/>
<rect x="20" y="10" width="1" height="12" fill="black"/>
<rect x="15" y="10" width="1" height="12" fill="black"/>
<mask id="path-5-inside-1_4_276118" fill="white">
<path d="M1 7C1 6.44772 1.44772 6 2 6H6C6.55228 6 7 6.44772 7 7V27H1V7Z"/>
</mask>
<path d="M1 7C1 6.44772 1.44772 6 2 6H6C6.55228 6 7 6.44772 7 7V27H1V7Z" fill="white" stroke="black" stroke-width="3" mask="url(#path-5-inside-1_4_276118)"/>
<mask id="path-6-inside-2_4_276118" fill="white">
<rect x="19" y="6" width="6" height="21" rx="1"/>
</mask>
<rect x="19" y="6" width="6" height="21" rx="1" fill="white" stroke="black" stroke-width="3" mask="url(#path-6-inside-2_4_276118)"/>
<rect y="25" width="32" height="2" rx="1" fill="black"/>
<rect x="27" y="21" width="4" height="4" rx="2" fill="black"/>
</svg>
