<svg width="32" height="32" viewBox="0 0 32 32" fill="none" xmlns="http://www.w3.org/2000/svg">
<path d="M1.75 12.6594C1.75 12.5594 1.8096 12.469 1.90152 12.4296L13.9015 7.28675C14.0665 7.21605 14.25 7.33706 14.25 7.51654V17.3406C14.25 17.4406 14.1904 17.531 14.0985 17.5704L2.09848 22.7132C1.93351 22.7839 1.75 22.6629 1.75 22.4835V12.6594Z" stroke="#02213C" stroke-width="1.5"/>
<path d="M30.25 22.4835C30.25 22.6629 30.0665 22.7839 29.9015 22.7132L17.9015 17.5704C17.8096 17.531 17.75 17.4406 17.75 17.3406L17.75 7.51654C17.75 7.33706 17.9335 7.21605 18.0985 7.28675L30.0985 12.4296C30.1904 12.469 30.25 12.5594 30.25 12.6594L30.25 22.4835Z" stroke="#02213C" stroke-width="1.5"/>
<rect x="22" y="19" width="1" height="11" transform="rotate(-180 22 19)" fill="#02213C"/>
<rect x="26" y="22" width="1" height="12" transform="rotate(-180 26 22)" fill="#02213C"/>
<mask id="path-5-inside-1_4_276565" fill="white">
<path d="M1 7C1 6.44772 1.44772 6 2 6H6C6.55228 6 7 6.44772 7 7V27H1V7Z"/>
</mask>
<path d="M1 7C1 6.44772 1.44772 6 2 6H6C6.55228 6 7 6.44772 7 7V27H1V7Z" fill="white" stroke="#02213C" stroke-width="3" mask="url(#path-5-inside-1_4_276565)"/>
<mask id="path-6-inside-2_4_276565" fill="white">
<rect x="25" y="6" width="6" height="21" rx="1"/>
</mask>
<rect x="25" y="6" width="6" height="21" rx="1" fill="white" stroke="#02213C" stroke-width="3" mask="url(#path-6-inside-2_4_276565)"/>
<rect x="10" y="8" width="1" height="11" fill="#02213C"/>
<rect x="6" y="10" width="1" height="12" fill="#02213C"/>
<rect x="6" y="10" width="1" height="12" fill="#02213C"/>
<rect y="25" width="32" height="2" rx="1" fill="#02213C"/>
</svg>
