<svg width="13" height="12" viewBox="0 0 13 12" fill="none" xmlns="http://www.w3.org/2000/svg">
<path d="M7.13966 0.464146C6.93852 -0.154715 6.06196 -0.154715 5.86015 0.464146L4.8383 3.60482C4.79429 3.73964 4.70869 3.8571 4.59377 3.94038C4.47886 4.02366 4.34052 4.0685 4.19854 4.06846H0.892815C0.241627 4.06846 -0.0301474 4.90167 0.497261 5.28468L3.17197 7.22525C3.28687 7.30868 3.37238 7.4263 3.41625 7.56125C3.46011 7.6962 3.46008 7.84156 3.41617 7.97649L2.39499 11.1172C2.19317 11.736 2.90289 12.2514 3.42963 11.8684L6.10434 9.92782C6.2193 9.84434 6.35778 9.79938 6.4999 9.79938C6.64203 9.79938 6.7805 9.84434 6.89546 9.92782L9.57018 11.8684C10.0969 12.2514 10.8066 11.7367 10.6048 11.1172L9.58363 7.97649C9.53971 7.84156 9.53968 7.6962 9.58355 7.56125C9.62742 7.4263 9.71294 7.30868 9.82783 7.22525L12.5025 5.28468C13.0293 4.90167 12.7588 4.06846 12.107 4.06846H8.80059C8.65873 4.06835 8.52054 4.02346 8.40576 3.94019C8.29098 3.85692 8.20548 3.73953 8.16151 3.60482L7.13966 0.464146Z" fill="black"/>
</svg>
