<svg width="176" height="48" viewBox="0 0 176 48" fill="none" xmlns="http://www.w3.org/2000/svg">
<path fill-rule="evenodd" clip-rule="evenodd" d="M3.73998 31.8629C10.1697 38.4429 17.6711 44.3422 33.669 42.2245C35.8122 41.9219 36.1949 42.7539 34.3579 43.8127C26.091 48.8045 14.9155 48.8045 5.95978 45.7035C3.96962 45.0229 1.90291 42.6026 1.59673 40.4849C1.21401 38.0647 0.984375 35.4932 0.984375 32.9217C0.984375 30.804 2.20909 30.3502 3.73998 31.8629Z" fill="url(#paint0_linear_4_168772)"/>
<path fill-rule="evenodd" clip-rule="evenodd" d="M18.9531 37.8494C8.60017 25.1019 10.5115 12.3543 18.316 3.30516C19.7495 1.6527 19.5902 1.41664 17.7585 2.67565C10.1133 8.02647 4.69791 13.456 1.51239 19.1216C0.477093 21.0888 0.556731 24.3937 1.67166 26.2822C4.77754 31.633 9.79474 36.433 17.7585 39.5019C19.8291 40.3675 20.307 39.5806 18.9531 37.8494Z" fill="#FABB00"/>
<path d="M18.6361 34.0722C8.84062 19.2001 15.6895 7.00336 23.8126 1.65254C25.6442 0.393528 29.1483 -0.157292 31.3782 0.078774C38.8641 1.02304 45.3148 3.85582 50.332 7.31812C52.1637 8.57714 51.6859 9.75746 49.456 9.91484C30.9003 11.0165 18.875 18.0984 20.3085 33.4427C20.5474 35.5673 19.8307 35.9607 18.6361 34.0722Z" fill="url(#paint1_linear_4_168772)"/>
<path fill-rule="evenodd" clip-rule="evenodd" d="M32.4121 17.2329H48.8175V21.9542H37.9868V25.0231H47.7822V29.4296H37.9868V32.5772H48.9768V37.3772H32.4121V17.2329Z" fill="#FABB00"/>
<path fill-rule="evenodd" clip-rule="evenodd" d="M58.7722 27.2264C60.7631 27.2264 62.0373 26.1247 62.0373 24.5509V24.4723C62.0373 22.7411 60.7631 21.8755 58.7722 21.8755H56.0645V27.2264H58.7722ZM50.4102 17.2329H59.1703C64.3468 17.2329 67.612 19.8296 67.612 24.3149V24.3936C67.612 29.1936 63.869 31.7116 58.8518 31.7116H56.0645V37.4559H50.4102V17.2329Z" fill="#FABB00"/>
<path fill-rule="evenodd" clip-rule="evenodd" d="M84.0982 27.305C84.0982 24.3148 82.0276 21.7968 78.842 21.7968C75.7362 21.7968 73.6656 24.2362 73.6656 27.2263V27.305C73.6656 30.2165 75.8158 32.7345 78.9217 32.7345C82.0276 32.7345 84.0982 30.2165 84.0982 27.305ZM67.9316 27.305C67.9316 21.4821 72.6303 16.7607 78.9217 16.7607C85.2131 16.7607 89.9117 21.4034 89.9117 27.2263V27.305C89.9117 33.0493 85.2131 37.7706 78.9217 37.7706C72.6303 37.7706 67.9316 33.128 67.9316 27.305Z" fill="#FABB00"/>
<path fill-rule="evenodd" clip-rule="evenodd" d="M91.3457 17.2329H97V24.7083H104.327V17.2329H109.981V37.3772H104.327V29.6657H97V37.3772H91.3457V17.2329Z" fill="#FABB00"/>
<path fill-rule="evenodd" clip-rule="evenodd" d="M127.581 27.305C127.581 24.3148 125.51 21.7968 122.404 21.7968C119.298 21.7968 117.228 24.2362 117.228 27.2263V27.305C117.228 30.2165 119.378 32.7345 122.484 32.7345C125.51 32.7345 127.581 30.2165 127.581 27.305ZM111.414 27.305C111.414 21.4821 116.113 16.7607 122.404 16.7607C128.696 16.7607 133.394 21.4034 133.394 27.2263V27.305C133.394 33.128 128.696 37.7706 122.404 37.7706C116.113 37.7706 111.414 33.128 111.414 27.305Z" fill="#FABB00"/>
<path fill-rule="evenodd" clip-rule="evenodd" d="M134.906 17.2329H140.162L148.524 27.8559V17.2329H154.179V37.3772H149.241L140.481 26.2821V37.3772H134.906V17.2329Z" fill="#FABB00"/>
<path fill-rule="evenodd" clip-rule="evenodd" d="M162.222 29.8231L154.418 17.2329H160.869L165.089 24.5509L169.31 17.2329H175.602L167.877 29.7444V37.3772H162.222V29.8231Z" fill="#FABB00"/>
<defs>
<linearGradient id="paint0_linear_4_168772" x1="2.29556" y1="47.8347" x2="34.4185" y2="47.8347" gradientUnits="userSpaceOnUse">
<stop stop-color="#19ACDE"/>
<stop offset="1" stop-color="#BCD7E1"/>
</linearGradient>
<linearGradient id="paint1_linear_4_168772" x1="15.2375" y1="35.2867" x2="50.2445" y2="35.2867" gradientUnits="userSpaceOnUse">
<stop stop-color="#19ACDE"/>
<stop offset="1" stop-color="#BCD7E1"/>
</linearGradient>
</defs>
</svg>
